<svg id="Capa_1" data-name="Capa 1" xmlns="http://www.w3.org/2000/svg" viewBox="0 0 500 500"><defs><style>.cls-1{fill:#999c9e;}</style></defs><path class="cls-1" d="M477.87,336.93c0,12.79-.05,25.59,0,38.39,0,4.76-2,7.95-6.3,10q-34.57,16.56-69,33.32a11.33,11.33,0,0,1-10.84,0c-5.9-3-11.95-5.66-17.85-8.64-2-1-3.27-1-5.13.65A187,187,0,0,1,234.9,456.65c-43-2.62-80.6-18.39-112.84-47-2.75-2.44-2.93-2.74-5.94-.77-6,3.91-11.38,3.35-17.69.18C76.86,398.27,55,388,33.27,377.51c-4.57-2.2-6.77-5.57-6.74-10.74.09-24.63.13-49.26,0-73.88,0-5.57,2.07-9.06,7.11-11.34,8.25-3.74,16.34-7.84,24.54-11.7a3.12,3.12,0,0,0,2.08-3.16q4.23-101.44,90-155.88c6.07-3.84,12.65-6.9,19.1-10.09a3.8,3.8,0,0,0,2.49-4c-.1-9.52,0-19-.06-28.57a9.6,9.6,0,0,1,6-9.52Q212.84,42,247.93,25.2a11.2,11.2,0,0,1,10.28.1c22.71,11.07,45.39,22.18,68.17,33.08,5.23,2.51,7.51,6.08,7.38,11.9-.27,11.23,0,22.47-.13,33.7a3.69,3.69,0,0,0,2.23,3.81,183.72,183.72,0,0,1,93.8,129.49,193.25,193.25,0,0,1,3,31.48,2.91,2.91,0,0,0,1.95,3Q454,281,473.35,290.39a7.32,7.32,0,0,1,4.55,7q0,19.75,0,39.51ZM137.7,397.88c29.78,25.3,63.85,38.79,102.43,40.13,42.15,1.46,79.69-11.24,112.53-38.59-1.09-.57-1.79-.95-2.5-1.29C341,393.75,331.8,389.34,322.6,385c-4.5-2.11-6.73-5.43-6.72-10.52q.12-37.39,0-74.77c0-5.35,2.47-8.77,6.93-10.93q34.68-16.84,69.45-33.49a11,11,0,0,1,4.92-1.07,14.77,14.77,0,0,1,5.31,1.32c3.56,1.57,7,3.41,10.89,5.34-1.84-33.19-12.14-62.86-31.24-89.43a165.13,165.13,0,0,0-48.92-45.08c0,6,0,11.41,0,16.84,0,4.74-2,7.95-6.31,10q-34.47,16.5-68.84,33.23a11.83,11.83,0,0,1-11.23,0c-23-11.2-46-22.24-69-33.36a10,10,0,0,1-6.12-9.78c.07-7.07,0-14.13,0-21.2,0-.78-.08-1.55-.14-2.78C143,133.81,120.41,154.21,103.69,181a167.71,167.71,0,0,0-25.18,78.3c1.06-.48,1.66-.73,2.24-1,7.17-3.44,14.36-6.83,21.49-10.34a11.93,11.93,0,0,1,11.11,0q34.59,16.77,69.24,33.41c4.38,2.1,6.46,5.32,6.45,10.19Q189,329,189,366.37c0,4.65-1.92,7.85-6.2,9.87-13.64,6.42-27.22,13-40.83,19.48C140.7,396.35,139.41,397,137.7,397.88Zm197.05-85c-.05,1.09-.11,1.88-.11,2.66,0,17.41,0,34.81,0,52.22a3.31,3.31,0,0,0,2.17,3.56C353.2,379.14,369.59,387.06,386,395c.63.3,1.3.54,2.27.94v-2.57c0-17.48,0-35,0-52.44a3.31,3.31,0,0,0-2.27-3.49Q361.6,325.74,337.23,314C336.52,313.61,335.78,313.33,334.75,312.89Zm-289.29-8c-.07.91-.16,1.55-.16,2.19q0,26.67,0,53.33A2.55,2.55,0,0,0,47,363.08q24.9,11.69,49.79,23.43c.57.27,1.18.45,2.08.8v-2.5c0-17.33,0-34.66,0-52a3.32,3.32,0,0,0-2.29-3.48q-24.54-11.7-49-23.53C47,305.5,46.34,305.26,45.46,304.89ZM243.37,164.35c.1-1,.21-1.56.21-2.12,0-17.62,0-35.24,0-52.86,0-1.67-.75-2.33-2.06-3Q216.88,94.57,192.2,82.69c-.63-.3-1.3-.52-2.09-.82-.07.67-.14,1-.14,1.4,0,17.91,0,35.83,0,53.74,0,1.51.75,2,1.91,2.58,11.19,5.34,22.35,10.74,33.52,16.11ZM406.48,395.93c1.07-.45,1.74-.7,2.39-1q24.58-11.84,49.19-23.63a3.16,3.16,0,0,0,2.09-3.38c-.07-17.33,0-34.66,0-52,0-.77-.08-1.53-.14-2.54-1,.44-1.68.7-2.34,1-16.32,7.85-32.64,15.74-49,23.53a3.31,3.31,0,0,0-2.18,3.54c.07,17.25,0,34.51,0,51.76ZM315.43,81.83c-1,.37-1.58.57-2.16.85q-24.79,11.91-49.6,23.8a2.89,2.89,0,0,0-1.89,3c.06,17.55,0,35.1,0,52.65,0,.62.11,1.24.19,2.09,1.06-.46,1.88-.77,2.66-1.15,16.19-7.79,32.37-15.61,48.59-23.34a3.33,3.33,0,0,0,2.21-3.54c-.06-17.26,0-34.51,0-51.76Zm-198.27,306c.77-.28,1.12-.38,1.44-.53q25.32-12.41,50.65-24.79c1.34-.65,1.51-1.58,1.51-2.86q0-26.11,0-52.23c0-.77-.1-1.54-.18-2.55-1.06.47-1.8.78-2.52,1.13q-24.4,12-48.84,23.92a3.16,3.16,0,0,0-2.08,3.37c.06,17.41,0,34.82,0,52.23ZM57.57,290.34c.58.37.82.55,1.08.68q23.91,11.73,47.86,23.39a3.77,3.77,0,0,0,2.85-.12q23.69-11.42,47.31-23c.54-.26,1-.61,1.75-1-.64-.38-.95-.59-1.27-.75q-24-11.44-48.12-22.83a3.78,3.78,0,0,0-2.83.18Q82.74,278,59.36,289.32C58.85,289.57,58.37,289.88,57.57,290.34ZM202.09,67.22c.76.44,1.06.65,1.39.81,16,7.61,32,15.25,48.11,22.77a4.39,4.39,0,0,0,3.27-.21c12.37-5.79,24.69-11.68,37-17.54l11.84-5.65a14.89,14.89,0,0,0-1.42-.89c-15.95-7.59-31.9-15.2-47.89-22.7a4.34,4.34,0,0,0-3.26.13C240,49.16,228.87,54.48,217.74,59.77ZM346.9,298.89c.7.4,1.06.64,1.44.82q23.94,11.39,47.9,22.69a4.37,4.37,0,0,0,3.26-.21c13.23-6.2,26.43-12.5,39.63-18.78l9.28-4.42a20.14,20.14,0,0,0-1.8-1.1q-23.72-11.29-47.48-22.51a4,4,0,0,0-3,.05Q372.51,286.52,349,297.75C348.37,298.05,347.77,298.42,346.9,298.89Z"/></svg>