<svg id="Capa_1" data-name="Capa 1" xmlns="http://www.w3.org/2000/svg" viewBox="0 0 500 500"><defs><style>.cls-1{fill:#999c9e;}</style></defs><path class="cls-1" d="M181.92,73.9c-.07,1-.16,1.67-.16,2.34,0,5.18,0,10.37,0,15.55A3.47,3.47,0,0,0,183.26,95c9.29,6.94,19.8,11.22,30.91,14.12A148.57,148.57,0,0,0,266.63,113c13.88-1.36,27.36-4.32,40-10.35,4.52-2.16,8.65-5.12,13-7.67a3,3,0,0,0,1.54-3.15c-.08-1.33,0-32.89,0-34.22.14-5.08,3.58-8.57,8.39-8.55s8.55,2.82,8.6,7.85c.06,7.28-.24,45.63-.24,52.91v24.83H341q40,0,80.05,0c2.95,0,5.53.61,7.51,3,1.59,1.88,1.92,4.09,1.91,6.48q0,33.19,0,66.39,0,85.31,0,170.6c0,2.73,0,2.73,2.74,2.79C447,384.1,457.75,395,458,409.12c.07,5.44.2,11-.75,16.32A23.06,23.06,0,0,1,435,444.32c-12.6.32-25.21.13-37.81.13H63.34c-13,0-23.19-7.63-24.9-20a77.93,77.93,0,0,1,.21-21.73c1.58-10.65,11.47-18.41,22.25-18.83a7.63,7.63,0,0,1,1.26-.05c1.8.22,2.24-.63,2.23-2.31-.06-9.45,0-18.91,0-28.36q0-104.21,0-208.42a16,16,0,0,1,.55-4.75c1.1-3.46,4.08-5.34,8.14-5.35q19.55,0,39.08,0c16.46,0,32.92-.05,49.37,0,2.23,0,2.63-.69,2.62-2.74-.06-24.65,0-49.3-.07-74a9.62,9.62,0,0,1,3.4-7.73c11.08-10,24.16-16,38.29-20.13a163,163,0,0,1,53.55-6c17.69.84,34.83,4.09,51.19,11a86.44,86.44,0,0,1,25,15.62,7.92,7.92,0,0,1,.07,12.14C324.8,72.92,312,79.07,298.09,83.3c-18.7,5.7-37.89,7.32-57.3,6.23-17.56-1-34.67-4.32-50.81-11.66C187.38,76.68,184.85,75.35,181.92,73.9ZM81.69,383.66H414V151.5H338.34v2.4c0,8,0,16,0,23.95a8.71,8.71,0,0,1-3,6.84,81.69,81.69,0,0,1-17.56,12.16c-17.06,8.82-35.43,12.83-54.42,14.12a162.16,162.16,0,0,1-58.52-6.21c-13.74-4.17-26.46-10.23-37.19-20a8.87,8.87,0,0,1-3.1-7c0-8,0-16,0-23.95v-2.28H81.69ZM199.3,401H63c-4.85,0-7.84,3-7.86,7.88,0,3.71,0,7.42,0,11.13a6.66,6.66,0,0,0,4.22,6.45,12.77,12.77,0,0,0,4.9.73q130.47.06,260.94,0H432.33c4.87,0,7.86-3,7.88-7.84q0-4.72,0-9.45a15.43,15.43,0,0,0-.19-3.34c-.81-3.43-3.8-5.59-7.65-5.59H296.42c-.67,0-1.33.08-1.95.12-1,6.51-3.63,8.79-10,8.79h-37.4q-19.32,0-38.65,0c-4.9,0-7.86-2.52-8.75-7.3C199.56,402.14,199.44,401.66,199.3,401ZM320.59,114.48c-22.1,11.45-45.36,16-69.62,16s-47.66-4.14-69.43-15.86a5.53,5.53,0,0,0-.24,1c0,5.88-.06,11.76,0,17.64a3,3,0,0,0,1.3,2.15c5.47,3.21,10.8,6.8,16.58,9.33,13.92,6.1,28.7,8.62,43.83,9.43a146.89,146.89,0,0,0,46.54-4.79c10.59-2.89,20.64-7,29.46-13.76.65-.5,1.46-1.36,1.47-2.06C320.63,127.35,320.59,121.13,320.59,114.48Zm0,40.16c-22.14,11.55-45.45,16-69.7,16s-47.68-4.14-69.64-16.05c0,4.48,0,8.52,0,12.57,0,8.25,0,8.22,7.08,12.39,12.24,7.2,25.57,11.14,39.52,13.23A149.37,149.37,0,0,0,289,189.73c10.83-2.88,21-7.15,30.11-13.89a3.22,3.22,0,0,0,1.48-3c-.07-2.94,0-5.88,0-8.82Zm-5.51-97.2c-1.28-.82-2-1.32-2.8-1.77a96.7,96.7,0,0,0-25.63-10.18,149.43,149.43,0,0,0-48.1-3.82c-13.25,1-26.19,3.43-38.52,8.48-4.41,1.81-8.6,4.14-12.89,6.23l.16.82c17.17,10.56,36.17,15.15,56.08,16.1C268.47,74.48,292.55,70.61,315.1,57.44Z"/><path class="cls-1" d="M257.9,316.58,332.46,242H289.57a7.79,7.79,0,0,1-.78-15.55h63a7.66,7.66,0,0,1,7.58,7.59q0,31.08,0,62.15a7.79,7.79,0,1,1-15.56,0q0-20.81,0-41.59V253.1c-.57.54-.94.88-1.3,1.24l-78.08,78.08c-4.09,4.08-8.41,4.07-12.51,0q-15.78-15.78-31.55-31.57a6.68,6.68,0,0,1-.8-1.21H219a8,8,0,0,1-.81,1.21q-31.5,31.53-63,63c-2.43,2.42-5.22,3.36-8.53,2.22a7.72,7.72,0,0,1-3.76-11.77,13.92,13.92,0,0,1,1.54-1.72l68.71-68.73c4-4,8.36-3.95,12.34,0q15.83,15.81,31.64,31.65A9.18,9.18,0,0,1,257.9,316.58Z"/></svg>