<svg id="Capa_1" data-name="Capa 1" xmlns="http://www.w3.org/2000/svg" viewBox="0 0 500 500"><defs><style>.cls-1{fill:#999c9e;}</style></defs><path class="cls-1" d="M237.67,33q16.5,6,33,12,72.54,26.33,145.11,52.62c6.58,2.38,9.87,7,10.34,13.89.95,13.91,2.2,27.81,3,41.73a512,512,0,0,1,.21,54.43,445,445,0,0,1-7.15,63.15c-6.45,33.83-17,66.19-34.51,96.05-20,34.21-46.78,61.67-81.62,80.92A190.63,190.63,0,0,1,240.85,470c-7.65,1.11-15.06-.34-22.4-2C164,455.87,121.92,425.6,90.69,379.82c-18.24-26.75-30.09-56.34-38-87.6a408.66,408.66,0,0,1-10.8-67.76,582.44,582.44,0,0,1-.24-83.86c.65-10.15,1.61-20.28,2.55-30.41.58-6.2,3.92-10.29,9.83-12.43Q142,65.91,229.82,34l2.73-1Zm174,142c.22,0,.43-2.74.64-2.75-1.22-19.47-2.47-36.22-3.63-55.69a2.74,2.74,0,0,0-2.21-2.81Q380,104.22,353.62,94.6,295.2,73.41,236.75,52.23a5.12,5.12,0,0,0-3.19,0Q148.58,83,63.63,113.79a2.6,2.6,0,0,0-2.11,2.63c-.5,7.94-1.24,15.86-1.74,23.79-2.05,32.28-1.79,64.51,1.81,96.68a362.81,362.81,0,0,0,13.63,67.35c11,35.45,27.69,67.71,53.58,94.67,26.71,27.82,58.87,46,96.76,53.86,3.57.74,7.35,1.59,10.89,1.16,16.81-2,32.75-7.21,48.06-14.34,40.59-18.89,70.16-49.19,91.08-88.34,17.17-32.14,26.49-66.75,31.55-102.63A496.81,496.81,0,0,0,411.66,175Z"/><path class="cls-1" d="M188.9,210.7v-2.85c0-11.42.31-22.85-.07-34.26-.61-18.38,12.13-37.85,33.18-44a46.4,46.4,0,0,1,58.76,35.74,30.9,30.9,0,0,1,.57,5.76c.05,12.28,0,24.57,0,36.85v2.5c2.74.19,5.37.29,8,.57,14.46,1.55,26.57,13.76,27.88,28.21.35,3.86.33,7.75.33,11.62q0,42,0,84c0,12.44-5.3,22.14-16,28.68a31.78,31.78,0,0,1-17.06,4.4c-19-.05-38.07,0-57.1,0-14,0-28,0-42,0-16-.07-28.65-10.3-32-25.74a32,32,0,0,1-.69-6.62q-.06-46.11,0-92.22c0-18.21,13.95-32.33,32.2-32.69C186.12,210.67,187.34,210.7,188.9,210.7Zm46.52,16.05c-15.78,0-31.56,0-47.34,0-11,0-19,8-19,19q0,43.46,0,86.92c0,11,8,19,19.15,19q47,0,94.07,0c11.3,0,19.32-8.05,19.33-19.32q0-42.94,0-85.9c0-11.88-7.82-19.7-19.72-19.71Zm31.1-16.17c0-.77.09-1.3.09-1.83,0-11.91,0-23.82,0-35.72a19.84,19.84,0,0,0-.6-4.4c-4.67-19.64-26.61-30-44.62-20.78-11.09,5.67-17.29,14.78-17.23,27.73,0,10.89,0,21.78,0,32.67v2.33Z"/><path class="cls-1" d="M228,306.8c0-4.2-.08-8.41,0-12.62a3,3,0,0,0-2.09-3.25,21.74,21.74,0,1,1,19.36-.54c-2.42,1.22-3.1,2.59-3,5.15.17,8,.13,16,0,24-.06,5.63-4.7,9.06-9.61,7.29a7,7,0,0,1-4.67-6.7C228,315.7,228,311.25,228,306.8Zm1-35.75a6.16,6.16,0,0,0,6.13,6.17,6.19,6.19,0,0,0,0-12.38A6.16,6.16,0,0,0,229,271.05Z"/></svg>